# xmcd
#
# Track frame offsets: 
#        150
#        17605
#        36486
#        53371
#        71582
#        86233
#        103876
#        125200
#        144405
#        158771
#
# Disc length: 2327 seconds
#
# Revision: 1
# Processed by: cddbd v1.5.2PL0 Copyright (c) Steve Scherf et al.
# Submitted via: ExactAudioCopy v0.99pb4
#
DISCID=8909150a
DTITLE=น้องใหม่ เมืองชุมแพ - ผัวเขาผู้บ่าวข้อย
DYEAR=2009
DGENRE=Country
TTITLE0=เจ๊ใหญ่
TTITLE1=ผัวเขาผู้บ่าวข้อย
TTITLE2=แซวผู้บ่าว
TTITLE3=แพ้คนหล่อ
TTITLE4=เพศสองร้องทุกข์
TTITLE5=เสียงนิดสะกิดแฟน
TTITLE6=คอยพี่ที่ริมโขง
TTITLE7=สาวคุ้มใต้
TTITLE8=สาวหมอลำช้ำใจ
TTITLE9=น้องยอมบ่ได้
EXTD=
EXTT0=
EXTT1=
EXTT2=
EXTT3=
EXTT4=
EXTT5=
EXTT6=
EXTT7=
EXTT8=
EXTT9=
PLAYORDER=
